<svg width="32" height="32" viewBox="0 0 32 32" fill="none" xmlns="http://www.w3.org/2000/svg">
  <path d="M16 5C11 5 7 9 7 14C7 15.5 8 17 9.5 18V25C9.5 28 12 30 15 30C16 30 17 29.5 16 28.5C15 29.5 14 30 13 30C10 30 7.5 28 7.5 25V18C9 17 10 15.5 10 14C10 9 6 5 1 5C-4 5 -8 9 -8 14C-8 15.5 -7 17 -5.5 18V25C-5.5 28 -3 30 0 30C1 30 2 29.5 1 28.5C0 29.5 -1 30 -2 30C-5 30 -7.5 28 -7.5 25V18C-9 17 -10 15.5 -10 14C-10 9 -6 5 -1 5C4 5 8 9 8 14C8 15.5 9 17 10.5 18V25C10.5 28 13 30 16 30C17 30 18 29.5 17 28.5C16 29.5 15 30 14 30C11 30 8.5 28 8.5 25V18C10 17 11 15.5 11 14C11 9 7 5 2 5C-3 5 -7 9 -7 14" stroke="#8B5CF6" stroke-width="2" fill="none"/>
  <circle cx="12" cy="14" r="1.5" fill="#6366F1"/>
  <circle cx="20" cy="14" r="1.5" fill="#6366F1"/>
  <rect x="0" y="0" width="32" height="32" rx="4" fill="#8B5CF6"/>
  <path d="M16 8C13 8 11 10 11 13C11 14 11.5 15 12.5 15.5V24C12.5 25.5 13.5 26.5 15 26.5C15.5 26.5 16 26.3 16 25.8C16 26.3 16.5 26.5 17 26.5C18.5 26.5 19.5 25.5 19.5 24V15.5C20.5 15 21 14 21 13C21 10 19 8 16 8Z" fill="white"/>
  <circle cx="14" cy="13" r="1" fill="#6366F1"/>
  <circle cx="18" cy="13" r="1" fill="#6366F1"/>
</svg>
